<svg width="109" height="109" viewBox="0 0 109 109" fill="none" xmlns="http://www.w3.org/2000/svg">
<g clip-path="url(#clip0_2117_1003)">
<path d="M54.4991 104.778C82.2671 104.778 104.777 82.268 104.777 54.5001C104.777 26.7321 82.2671 4.22168 54.4991 4.22168C26.7311 4.22168 4.2207 26.7321 4.2207 54.5001C4.2207 82.268 26.7311 104.778 54.4991 104.778Z" fill="#EA5154"/>
<path d="M54.5 109C24.4511 109 0 84.5531 0 54.5C0 24.4511 24.4511 0 54.5 0C84.5531 0 109 24.4511 109 54.5C109 84.5531 84.5531 109 54.5 109ZM54.5 8.44303C29.1032 8.44303 8.44303 29.1032 8.44303 54.5C8.44303 79.8968 29.1032 100.557 54.5 100.557C79.8968 100.557 100.557 79.8925 100.557 54.5C100.557 29.1032 79.8968 8.44303 54.5 8.44303Z" fill="#EA5154"/>
<path d="M54.499 79.4491C52.1687 79.4491 50.2773 77.5621 50.2773 75.2275V33.0121C50.2773 30.6818 52.1687 28.7905 54.499 28.7905C56.8293 28.7905 58.7206 30.6818 58.7206 33.0121V75.2275C58.7206 77.5621 56.8293 79.4491 54.499 79.4491Z" fill="white"/>
<path d="M75.6069 58.3417H33.3915C31.0612 58.3417 29.1699 56.4504 29.1699 54.1201C29.1699 51.7898 31.0612 49.8984 33.3915 49.8984H75.6069C77.9415 49.8984 79.8285 51.7898 79.8285 54.1201C79.8285 56.4504 77.9415 58.3417 75.6069 58.3417Z" fill="white"/>
</g>
<defs>
<clipPath id="clip0_2117_1003">
<rect width="109" height="109" fill="white"/>
</clipPath>
</defs>
</svg>
