<svg width="28" height="28" viewBox="0 0 28 28" fill="none" xmlns="http://www.w3.org/2000/svg">
<path fill-rule="evenodd" clip-rule="evenodd" d="M0 14C0 6.26801 6.26801 0 14 0C21.732 0 28 6.26801 28 14C28 21.732 21.732 28 14 28C6.26801 28 0 21.732 0 14Z" fill="#FD5A59"/>
<path d="M14.0003 14.0003C13.267 14.0003 12.6392 13.7392 12.117 13.217C11.5948 12.6948 11.3337 12.067 11.3337 11.3337C11.3337 10.6003 11.5948 9.97255 12.117 9.45033C12.6392 8.9281 13.267 8.66699 14.0003 8.66699C14.7337 8.66699 15.3614 8.9281 15.8837 9.45033C16.4059 9.97255 16.667 10.6003 16.667 11.3337C16.667 12.067 16.4059 12.6948 15.8837 13.217C15.3614 13.7392 14.7337 14.0003 14.0003 14.0003ZM8.66699 19.3337V17.467C8.66699 17.0892 8.76421 16.742 8.95866 16.4253C9.1531 16.1087 9.41144 15.867 9.73366 15.7003C10.4225 15.3559 11.1225 15.0975 11.8337 14.9253C12.5448 14.7531 13.267 14.667 14.0003 14.667C14.7337 14.667 15.4559 14.7531 16.167 14.9253C16.8781 15.0975 17.5781 15.3559 18.267 15.7003C18.5892 15.867 18.8475 16.1087 19.042 16.4253C19.2364 16.742 19.3337 17.0892 19.3337 17.467V19.3337H8.66699ZM10.0003 18.0003H18.0003V17.467C18.0003 17.3448 17.9698 17.2337 17.9087 17.1337C17.8475 17.0337 17.767 16.9559 17.667 16.9003C17.067 16.6003 16.4614 16.3753 15.8503 16.2253C15.2392 16.0753 14.6225 16.0003 14.0003 16.0003C13.3781 16.0003 12.7614 16.0753 12.1503 16.2253C11.5392 16.3753 10.9337 16.6003 10.3337 16.9003C10.2337 16.9559 10.1531 17.0337 10.092 17.1337C10.0309 17.2337 10.0003 17.3448 10.0003 17.467V18.0003ZM14.0003 12.667C14.367 12.667 14.6809 12.5364 14.942 12.2753C15.2031 12.0142 15.3337 11.7003 15.3337 11.3337C15.3337 10.967 15.2031 10.6531 14.942 10.392C14.6809 10.1309 14.367 10.0003 14.0003 10.0003C13.6337 10.0003 13.3198 10.1309 13.0587 10.392C12.7975 10.6531 12.667 10.967 12.667 11.3337C12.667 11.7003 12.7975 12.0142 13.0587 12.2753C13.3198 12.5364 13.6337 12.667 14.0003 12.667Z" fill="white"/>
</svg>
