<svg width="17" height="16" viewBox="0 0 17 16" fill="none" xmlns="http://www.w3.org/2000/svg">
<path fill-rule="evenodd" clip-rule="evenodd" d="M9.09159 5.60777L14.6367 4L13.2565 9.6061L11.5348 7.9532L8.75741 10.8463C8.66313 10.9445 8.53287 11 8.39672 11C8.26057 11 8.13031 10.9445 8.03603 10.8463L5.99672 8.72199L2.99741 11.8463C2.80618 12.0455 2.48966 12.0519 2.29045 11.8607C2.09125 11.6695 2.08479 11.3529 2.27603 11.1537L5.63603 7.65373C5.73031 7.55552 5.86057 7.5 5.99672 7.5C6.13287 7.5 6.26313 7.55552 6.35741 7.65373L8.39672 9.77801L10.8134 7.26067L9.09159 5.60777Z" fill="#1C1C1C"/>
</svg>
