<svg width="38" height="36" viewBox="0 0 38 36" fill="none" xmlns="http://www.w3.org/2000/svg">
<g clip-path="url(#clip0_267_2949)">
<rect x="0.768066" width="36" height="36" rx="6" fill="#FFEEEE"/>
<g clip-path="url(#clip1_267_2949)">
<path d="M15.4393 16.4797C15.6215 17.664 16.5367 19.1714 18.0399 19.7014C18.6569 19.9167 19.3319 19.9209 19.9489 19.6973C21.4272 19.1631 22.3714 17.6599 22.5577 16.4797C22.7565 16.4631 23.0174 16.1857 23.299 15.1877C23.6841 13.8253 23.2741 13.6224 22.9263 13.6555C22.9925 13.4692 23.0422 13.2787 23.0754 13.0965C23.6634 9.56421 21.9242 9.44413 21.9242 9.44413C21.9242 9.44413 21.6343 8.88923 20.8765 8.47099C20.3671 8.16869 19.659 7.9368 18.7273 8.01548C18.425 8.0279 18.1393 8.09002 17.8701 8.17698C17.5264 8.29292 17.2117 8.46271 16.926 8.66147C16.5781 8.88095 16.2468 9.15425 15.957 9.46483C15.4973 9.93691 15.0873 10.5456 14.9093 11.3034C14.7602 11.8708 14.7933 12.4629 14.9176 13.1006C14.9507 13.287 15.0004 13.4733 15.0666 13.6597C14.7188 13.6265 14.3088 13.8295 14.694 15.1918C14.9797 16.1857 15.2406 16.4631 15.4393 16.4797Z" fill="#FFC3C2"/>
<path d="M25.8291 21.1137C23.7131 20.5754 21.9946 19.3662 21.9946 19.3662L20.6529 23.6107L20.4003 24.41L20.3961 24.3975L20.1767 25.0767L19.4685 23.0683C21.2078 20.6416 19.1166 20.6665 19.0006 20.6706C18.8847 20.6665 16.7935 20.6416 18.5327 23.0683L17.8246 25.0767L17.6051 24.3975L17.601 24.41L17.3484 23.6107L16.0025 19.3662C16.0025 19.3662 14.284 20.5754 12.1679 21.1137C10.5902 21.5154 10.5157 23.3374 10.5778 24.236C10.5778 24.236 10.6689 25.4576 10.76 25.996C10.76 25.996 13.8409 27.9961 19.0006 28.0002C24.1603 28.0002 27.2412 25.996 27.2412 25.996C27.3323 25.4576 27.4234 24.236 27.4234 24.236C27.4814 23.3374 27.4069 21.5154 25.8291 21.1137Z" fill="#FFC3C2"/>
</g>
</g>
<defs>
<clipPath id="clip0_267_2949">
<rect width="36.6582" height="36" fill="white" transform="translate(0.768066)"/>
</clipPath>
<clipPath id="clip1_267_2949">
<rect width="20" height="20" fill="white" transform="translate(9 8)"/>
</clipPath>
</defs>
</svg>
