<svg width="37" height="36" viewBox="0 0 37 36" fill="none" xmlns="http://www.w3.org/2000/svg">
<rect width="36" height="36" rx="6" fill="#EEEEEE"/>
<path d="M25.1131 18.6768H23.5664C23.7241 19.1084 23.8102 19.5742 23.8102 20.0597V25.9054C23.8102 26.1079 23.775 26.3022 23.7109 26.4829H26.2679C27.2231 26.4829 28.0002 25.7058 28.0002 24.7506V21.5638C28.0002 19.9719 26.7051 18.6768 25.1131 18.6768Z" fill="#FD5A59"/>
<path d="M12.19 20.0597C12.19 19.5742 12.2762 19.1084 12.4338 18.6768H10.8871C9.29516 18.6768 8 19.9719 8 21.5639V24.7506C8 25.7058 8.77707 26.4829 9.73227 26.4829H12.2894C12.2253 26.3021 12.19 26.1079 12.19 25.9054V20.0597Z" fill="#FD5A59"/>
<path d="M19.7679 17.1729H16.2318C14.6399 17.1729 13.3447 18.468 13.3447 20.06V25.9057C13.3447 26.2245 13.6032 26.4831 13.9221 26.4831H22.0776C22.3965 26.4831 22.655 26.2246 22.655 25.9057V20.06C22.655 18.468 21.3598 17.1729 19.7679 17.1729Z" fill="#FD5A59"/>
<path d="M17.9999 9.51758C16.0854 9.51758 14.5278 11.0752 14.5278 12.9897C14.5278 14.2884 15.2446 15.4226 16.3031 16.018C16.8052 16.3004 17.384 16.4619 17.9999 16.4619C18.6159 16.4619 19.1947 16.3004 19.6968 16.018C20.7553 15.4226 21.4721 14.2883 21.4721 12.9897C21.4721 11.0752 19.9145 9.51758 17.9999 9.51758Z" fill="#FD5A59"/>
<path d="M11.9028 12.7539C10.471 12.7539 9.30615 13.9188 9.30615 15.3506C9.30615 16.7824 10.471 17.9473 11.9028 17.9473C12.266 17.9473 12.6119 17.872 12.9261 17.7368C13.4693 17.5029 13.9172 17.089 14.1943 16.5704C14.3889 16.2065 14.4995 15.7913 14.4995 15.3506C14.4995 13.9188 13.3347 12.7539 11.9028 12.7539Z" fill="#FD5A59"/>
<path d="M24.0972 12.7539C22.6653 12.7539 21.5005 13.9188 21.5005 15.3506C21.5005 15.7913 21.6112 16.2065 21.8057 16.5704C22.0828 17.089 22.5307 17.503 23.0739 17.7368C23.3881 17.872 23.734 17.9473 24.0972 17.9473C25.529 17.9473 26.6939 16.7824 26.6939 15.3506C26.6939 13.9188 25.529 12.7539 24.0972 12.7539Z" fill="#FD5A59"/>
</svg>
