<svg width="12" height="14" viewBox="0 0 12 14" fill="none" xmlns="http://www.w3.org/2000/svg">
<path fill-rule="evenodd" clip-rule="evenodd" d="M8.66954 3.03334C8.51465 1.32897 7.25342 2.98995e-05 5.7205 2.98995e-05C4.93379 -0.00375228 4.1764 0.351427 3.61763 0.987049C3.13252 1.53888 2.83182 2.26264 2.76097 3.03334H2.76033C1.68638 3.03334 0.784082 3.93394 0.53059 5.49767L0.0718756 9.56061C-0.318587 12.5356 0.9 13.8434 3.28489 13.8434H8.16651C10.372 13.8434 11.6902 12.3693 11.4195 9.72388L10.946 5.52491C10.6424 3.94172 9.7633 3.03334 8.71248 3.03334H8.66954ZM7.78554 3.03334C7.63587 1.88389 6.76816 1.00208 5.71865 1.00207C5.16337 0.999406 4.63003 1.24951 4.23657 1.6971C3.91703 2.06059 3.71112 2.53001 3.64502 3.03334H7.78554ZM2.75998 4.03532H8.71213C9.32839 4.03532 9.86979 4.59476 10.0823 5.69664L10.5306 9.68854C10.7974 11.8124 9.90936 12.8413 8.16616 12.8413H3.28454C1.39696 12.8413 0.635187 12.0237 0.940256 9.69881L1.39648 5.65283C1.57082 4.58157 2.1181 4.03532 2.75998 4.03532ZM7.4546 5.8944C7.69683 5.8944 7.89319 6.11842 7.89319 6.39476C7.89319 6.64807 7.72819 6.85742 7.51412 6.89055L7.4546 6.89512H7.42784C7.18562 6.89512 6.98926 6.6711 6.98926 6.39476C6.98926 6.14145 7.15425 5.9321 7.36833 5.89897L7.42784 5.8944H7.4546ZM4.48401 6.39476C4.48401 6.11842 4.28765 5.8944 4.04542 5.8944H4.01866L3.95915 5.89897C3.74508 5.9321 3.58008 6.14145 3.58008 6.39476C3.58008 6.6711 3.77644 6.89512 4.01866 6.89512H4.04542L4.10494 6.89055C4.31901 6.85742 4.48401 6.64807 4.48401 6.39476Z" fill="white"/>
</svg>
