<svg width="52" height="53" viewBox="0 0 52 53" fill="none" xmlns="http://www.w3.org/2000/svg">
<path d="M0.25 26.041C0.25 11.8197 11.7787 0.291016 26 0.291016C40.2213 0.291016 51.75 11.8197 51.75 26.041C51.75 40.2623 40.2213 51.791 26 51.791C11.7787 51.791 0.25 40.2623 0.25 26.041Z" fill="white"/>
<path d="M0.25 26.041C0.25 11.8197 11.7787 0.291016 26 0.291016C40.2213 0.291016 51.75 11.8197 51.75 26.041C51.75 40.2623 40.2213 51.791 26 51.791C11.7787 51.791 0.25 40.2623 0.25 26.041Z" stroke="#CACACA" stroke-width="0.5"/>
<path d="M17 34.041V18.041L36 26.041L17 34.041ZM19 31.041L30.85 26.041L19 21.041V24.541L25 26.041L19 27.541V31.041Z" fill="#A6A6A6"/>
</svg>
