<svg width="28" height="28" viewBox="0 0 28 28" fill="none" xmlns="http://www.w3.org/2000/svg">
<path fill-rule="evenodd" clip-rule="evenodd" d="M0 14C0 6.26801 6.26801 0 14 0C21.732 0 28 6.26801 28 14C28 21.732 21.732 28 14 28C6.26801 28 0 21.732 0 14Z" fill="#FD5A59"/>
<path d="M16.0417 18.6226L13.5625 16.1434L14.3792 15.3268L16.0417 16.9893L19.3375 13.6934L20.1542 14.5101L16.0417 18.6226ZM19.25 12.833H18.0833V9.91634H16.9167V11.6663H11.0833V9.91634H9.91667V18.083H13.4167V19.2497H9.91667C9.59583 19.2497 9.32118 19.1354 9.09271 18.907C8.86424 18.6785 8.75 18.4038 8.75 18.083V9.91634C8.75 9.59551 8.86424 9.32086 9.09271 9.09238C9.32118 8.86391 9.59583 8.74967 9.91667 8.74967H12.3521C12.459 8.4094 12.6681 8.12988 12.9792 7.91113C13.2903 7.69238 13.6306 7.58301 14 7.58301C14.3889 7.58301 14.7365 7.69238 15.0427 7.91113C15.349 8.12988 15.5556 8.4094 15.6625 8.74967H18.0833C18.4042 8.74967 18.6788 8.86391 18.9073 9.09238C19.1358 9.32086 19.25 9.59551 19.25 9.91634V12.833ZM14 9.91634C14.1653 9.91634 14.3038 9.86044 14.4156 9.74863C14.5274 9.63683 14.5833 9.49829 14.5833 9.33301C14.5833 9.16773 14.5274 9.02919 14.4156 8.91738C14.3038 8.80558 14.1653 8.74967 14 8.74967C13.8347 8.74967 13.6962 8.80558 13.5844 8.91738C13.4726 9.02919 13.4167 9.16773 13.4167 9.33301C13.4167 9.49829 13.4726 9.63683 13.5844 9.74863C13.6962 9.86044 13.8347 9.91634 14 9.91634Z" fill="white"/>
</svg>
