<svg width="18" height="16" viewBox="0 0 18 16" fill="none" xmlns="http://www.w3.org/2000/svg">
<path d="M17.6705 0.401139C17.8815 0.658321 18 1.00694 18 1.37043C18 1.73391 17.8815 2.08254 17.6705 2.33972L6.77785 15.5989C6.56657 15.8557 6.28018 16 5.98157 16C5.68296 16 5.39656 15.8557 5.18528 15.5989L0.30239 9.65511C0.103456 9.39493 -0.00487473 9.05101 0.000168506 8.69564C0.00521174 8.34026 0.123236 8.0011 0.329434 7.74945C0.536173 7.49845 0.814797 7.35479 1.10674 7.34865C1.39869 7.34251 1.68123 7.47437 1.89496 7.71653L5.98157 12.691L16.0779 0.401139C16.2892 0.144277 16.5756 0 16.8742 0C17.1728 0 17.4592 0.144277 17.6705 0.401139Z" fill="black"/>
</svg>
