<svg width="39" height="39" viewBox="0 0 39 39" fill="none" xmlns="http://www.w3.org/2000/svg">
<rect x="11" y="11" width="17" height="18" fill="black"/>
<path d="M19.8536 20.4599L19.5 20.1064L19.1464 20.4599L14.5769 25.0294C14.4022 25.2042 14.1453 25.2042 13.9706 25.0294C13.7958 24.8547 13.7958 24.5978 13.9706 24.4231L18.5401 19.8536L18.8936 19.5L18.5401 19.1464L13.9706 14.5769C13.7958 14.4022 13.7958 14.1453 13.9706 13.9706C14.1453 13.7958 14.4022 13.7958 14.5769 13.9706L19.1464 18.5401L19.5 18.8936L19.8536 18.5401L24.4231 13.9706C24.5978 13.7958 24.8547 13.7958 25.0294 13.9706C25.2042 14.1453 25.2042 14.4022 25.0294 14.5769L20.4599 19.1464L20.1064 19.5L20.4599 19.8536L25.0294 24.4231C25.2042 24.5978 25.2042 24.8547 25.0294 25.0294C24.8547 25.2042 24.5978 25.2042 24.4231 25.0294L19.8536 20.4599ZM19.5 0.5C9.01186 0.5 0.5 9.01186 0.5 19.5C0.5 29.9881 9.01186 38.5 19.5 38.5C29.9881 38.5 38.5 29.9881 38.5 19.5C38.5 9.01186 29.9881 0.5 19.5 0.5Z" fill="#F5F0E9" stroke="#797979"/>
</svg>
