<svg width="28" height="28" viewBox="0 0 28 28" fill="none" xmlns="http://www.w3.org/2000/svg">
<path d="M0.5 14C0.5 6.54416 6.54416 0.5 14 0.5C21.4558 0.5 27.5 6.54416 27.5 14C27.5 21.4558 21.4558 27.5 14 27.5C6.54416 27.5 0.5 21.4558 0.5 14Z" fill="#F7F4F1" stroke="black"/>
<path d="M14 15.8876L9.46323 11.2563C9.1285 10.9146 8.58579 10.9146 8.25105 11.2563C7.91632 11.598 7.91632 12.152 8.25105 12.4937L13.3939 17.7437C13.7286 18.0854 14.2714 18.0854 14.6061 17.7437L19.7489 12.4937C20.0837 12.152 20.0837 11.598 19.7489 11.2563C19.4142 10.9146 18.8715 10.9146 18.5368 11.2563L14 15.8876Z" fill="black"/>
</svg>
