<svg width="24" height="24" viewBox="0 0 24 24" fill="none" xmlns="http://www.w3.org/2000/svg">
<path d="M10.8058 9.37841L9.65855 12.8212C9.59162 13.0323 9.584 13.2578 9.63651 13.4729C9.68902 13.6881 9.79966 13.8847 9.95632 14.0412C10.113 14.1977 10.3097 14.3082 10.5249 14.3606C10.7401 14.4129 10.9655 14.4051 11.1766 14.338L14.6194 13.1908C14.7955 13.1317 14.9557 13.0327 15.0874 12.9016L23.1706 4.81841C23.6996 4.28875 23.9967 3.57078 23.9967 2.82221C23.9967 2.07363 23.6996 1.35566 23.1706 0.826006C22.6406 0.297961 21.923 0.00146484 21.175 0.00146484C20.4269 0.00146484 19.7093 0.297961 19.1794 0.826006L11.0962 8.91041C10.9644 9.04178 10.865 9.202 10.8058 9.37841Z" fill="#FD5A59"/>
<path d="M22.8 8.4C22.4817 8.4 22.1765 8.52643 21.9515 8.75147C21.7264 8.97652 21.6 9.28174 21.6 9.6V18C21.6 18.9548 21.2207 19.8705 20.5456 20.5456C19.8705 21.2207 18.9548 21.6 18 21.6H6C5.04522 21.6 4.12955 21.2207 3.45442 20.5456C2.77928 19.8705 2.4 18.9548 2.4 18V6C2.4 5.04522 2.77928 4.12955 3.45442 3.45442C4.12955 2.77928 5.04522 2.4 6 2.4H14.4C14.7183 2.4 15.0235 2.27357 15.2485 2.04853C15.4736 1.82348 15.6 1.51826 15.6 1.2C15.6 0.88174 15.4736 0.576515 15.2485 0.351472C15.0235 0.126428 14.7183 0 14.4 0H6C4.40929 0.00190543 2.88427 0.634658 1.75946 1.75946C0.634658 2.88427 0.00190543 4.40929 0 6V18C0.00190543 19.5907 0.634658 21.1157 1.75946 22.2405C2.88427 23.3653 4.40929 23.9981 6 24H18C19.5907 23.9981 21.1157 23.3653 22.2405 22.2405C23.3653 21.1157 23.9981 19.5907 24 18V9.6C24 9.28174 23.8736 8.97652 23.6485 8.75147C23.4235 8.52643 23.1183 8.4 22.8 8.4Z" fill="#FD5A59"/>
</svg>
