<svg width="50" height="50" viewBox="0 0 50 50" fill="none" xmlns="http://www.w3.org/2000/svg">
<rect width="50" height="50" rx="25" fill="#FD5A59"/>
<path d="M25 33C24.45 33 23.9792 32.8042 23.5875 32.4125C23.1958 32.0208 23 31.55 23 31C23 30.45 23.1958 29.9792 23.5875 29.5875C23.9792 29.1958 24.45 29 25 29C25.55 29 26.0208 29.1958 26.4125 29.5875C26.8042 29.9792 27 30.45 27 31C27 31.55 26.8042 32.0208 26.4125 32.4125C26.0208 32.8042 25.55 33 25 33ZM25 27C24.45 27 23.9792 26.8042 23.5875 26.4125C23.1958 26.0208 23 25.55 23 25C23 24.45 23.1958 23.9792 23.5875 23.5875C23.9792 23.1958 24.45 23 25 23C25.55 23 26.0208 23.1958 26.4125 23.5875C26.8042 23.9792 27 24.45 27 25C27 25.55 26.8042 26.0208 26.4125 26.4125C26.0208 26.8042 25.55 27 25 27ZM25 21C24.45 21 23.9792 20.8042 23.5875 20.4125C23.1958 20.0208 23 19.55 23 19C23 18.45 23.1958 17.9792 23.5875 17.5875C23.9792 17.1958 24.45 17 25 17C25.55 17 26.0208 17.1958 26.4125 17.5875C26.8042 17.9792 27 18.45 27 19C27 19.55 26.8042 20.0208 26.4125 20.4125C26.0208 20.8042 25.55 21 25 21Z" fill="white"/>
</svg>
