<svg width="28" height="28" viewBox="0 0 28 28" fill="none" xmlns="http://www.w3.org/2000/svg">
<path fill-rule="evenodd" clip-rule="evenodd" d="M0 14C0 6.26801 6.26801 0 14 0V0C21.732 0 28 6.26801 28 14V14C28 21.732 21.732 28 14 28V28C6.26801 28 0 21.732 0 14V14Z" fill="#FD5A59"/>
<path d="M14.0003 16.667C14.8337 16.667 15.542 16.3753 16.1253 15.792C16.7087 15.2087 17.0003 14.5003 17.0003 13.667C17.0003 12.8337 16.7087 12.1253 16.1253 11.542C15.542 10.9587 14.8337 10.667 14.0003 10.667C13.167 10.667 12.4587 10.9587 11.8753 11.542C11.292 12.1253 11.0003 12.8337 11.0003 13.667C11.0003 14.5003 11.292 15.2087 11.8753 15.792C12.4587 16.3753 13.167 16.667 14.0003 16.667ZM14.0003 15.467C13.5003 15.467 13.0753 15.292 12.7253 14.942C12.3753 14.592 12.2003 14.167 12.2003 13.667C12.2003 13.167 12.3753 12.742 12.7253 12.392C13.0753 12.042 13.5003 11.867 14.0003 11.867C14.5003 11.867 14.9253 12.042 15.2753 12.392C15.6253 12.742 15.8003 13.167 15.8003 13.667C15.8003 14.167 15.6253 14.592 15.2753 14.942C14.9253 15.292 14.5003 15.467 14.0003 15.467ZM14.0003 18.667C12.3781 18.667 10.9003 18.2142 9.56699 17.3087C8.23366 16.4031 7.26699 15.1892 6.66699 13.667C7.26699 12.1448 8.23366 10.9309 9.56699 10.0253C10.9003 9.11977 12.3781 8.66699 14.0003 8.66699C15.6225 8.66699 17.1003 9.11977 18.4337 10.0253C19.767 10.9309 20.7337 12.1448 21.3337 13.667C20.7337 15.1892 19.767 16.4031 18.4337 17.3087C17.1003 18.2142 15.6225 18.667 14.0003 18.667ZM14.0003 17.3337C15.2559 17.3337 16.4087 17.0031 17.4587 16.342C18.5087 15.6809 19.3114 14.7892 19.867 13.667C19.3114 12.5448 18.5087 11.6531 17.4587 10.992C16.4087 10.3309 15.2559 10.0003 14.0003 10.0003C12.7448 10.0003 11.592 10.3309 10.542 10.992C9.49199 11.6531 8.68921 12.5448 8.13366 13.667C8.68921 14.7892 9.49199 15.6809 10.542 16.342C11.592 17.0031 12.7448 17.3337 14.0003 17.3337Z" fill="white"/>
</svg>
