<svg width="109" height="109" viewBox="0 0 109 109" fill="none" xmlns="http://www.w3.org/2000/svg">
<path d="M54.4991 104.778C82.2671 104.778 104.777 82.268 104.777 54.5001C104.777 26.7321 82.2671 4.22168 54.4991 4.22168C26.7311 4.22168 4.2207 26.7321 4.2207 54.5001C4.2207 82.268 26.7311 104.778 54.4991 104.778Z" fill="#EA5154"/>
<path d="M54.5 109C24.4511 109 0 84.5531 0 54.5C0 24.4511 24.4511 0 54.5 0C84.5531 0 109 24.4511 109 54.5C109 84.5531 84.5531 109 54.5 109ZM54.5 8.44303C29.1032 8.44303 8.44303 29.1032 8.44303 54.5C8.44303 79.8968 29.1032 100.557 54.5 100.557C79.8968 100.557 100.557 79.8925 100.557 54.5C100.557 29.1032 79.8968 8.44303 54.5 8.44303Z" fill="#EA5154"/>
<path d="M76.435 39.3342L62.6072 25.5065C62.2844 25.1836 61.8439 25 61.3848 25H37.1855C34.3262 25 32 27.3262 32 30.1855V78.8145C32 81.6738 34.3262 84 37.1855 84H71.7559C74.6152 84 76.9414 81.6738 76.9414 78.8145V40.5566C76.9414 40.0853 76.7436 39.6427 76.435 39.3342ZM63.1133 30.9015L71.0399 38.8281H64.8418C63.8887 38.8281 63.1133 38.0527 63.1133 37.0996V30.9015ZM71.7559 80.543H37.1855C36.2324 80.543 35.457 79.7676 35.457 78.8145V30.1855C35.457 29.2324 36.2324 28.457 37.1855 28.457H59.6562V37.0996C59.6562 39.9589 61.9825 42.2852 64.8418 42.2852H73.4844V78.8145C73.4844 79.7676 72.709 80.543 71.7559 80.543Z" fill="white"/>
<path d="M64.8418 49.4297H44.0996C43.145 49.4297 42.3711 50.2036 42.3711 51.1582C42.3711 52.1128 43.145 52.8867 44.0996 52.8867H64.8418C65.7964 52.8867 66.5703 52.1128 66.5703 51.1582C66.5703 50.2036 65.7964 49.4297 64.8418 49.4297Z" fill="white"/>
<path d="M64.8418 56.3438H44.0996C43.145 56.3438 42.3711 57.1177 42.3711 58.0723C42.3711 59.0269 43.145 59.8008 44.0996 59.8008H64.8418C65.7964 59.8008 66.5703 59.0269 66.5703 58.0723C66.5703 57.1177 65.7964 56.3438 64.8418 56.3438Z" fill="white"/>
<path d="M64.8418 63.2578H44.0996C43.145 63.2578 42.3711 64.0317 42.3711 64.9863C42.3711 65.9409 43.145 66.7148 44.0996 66.7148H64.8418C65.7964 66.7148 66.5703 65.9409 66.5703 64.9863C66.5703 64.0317 65.7964 63.2578 64.8418 63.2578Z" fill="white"/>
<path d="M57.9277 70.1719H44.0996C43.145 70.1719 42.3711 70.9458 42.3711 71.9004C42.3711 72.855 43.145 73.6289 44.0996 73.6289H57.9277C58.8823 73.6289 59.6562 72.855 59.6562 71.9004C59.6562 70.9458 58.8823 70.1719 57.9277 70.1719Z" fill="white"/>
</svg>
