<svg width="17" height="13" viewBox="0 0 17 13" fill="none" xmlns="http://www.w3.org/2000/svg">
<path d="M10.6105 6.646L11.5761 5.66152C11.6463 5.92951 11.6875 6.20968 11.6875 6.50002C11.6875 8.29212 10.2576 9.75001 8.5 9.75001C8.21525 9.75001 7.94046 9.70803 7.67762 9.63639L8.64317 8.65192C9.6989 8.57852 10.5385 7.72242 10.6105 6.646ZM16.9331 6.2369C16.8677 6.11706 15.941 4.46132 14.1294 3.05814L13.3563 3.8464C14.6772 4.8367 15.5142 5.99166 15.8437 6.50083C15.2141 7.4784 12.744 10.8333 8.5 10.8333C7.86356 10.8333 7.27175 10.7503 6.71487 10.6179L5.84189 11.508C6.64448 11.7589 7.52662 11.9167 8.5 11.9167C14.0613 11.9167 16.8184 6.97343 16.9331 6.76313C17.0223 6.59941 17.0223 6.40062 16.9331 6.2369ZM14.7193 0.924656L3.03184 12.8413C2.92812 12.9471 2.79212 13 2.65625 13C2.52038 13 2.38438 12.9471 2.28066 12.8413C2.07307 12.6296 2.07307 12.2869 2.28066 12.0754L3.76763 10.5593C1.36372 9.07956 0.142242 6.90139 0.0669375 6.76313C-0.0223125 6.59941 -0.0223125 6.40049 0.0669375 6.23677C0.181555 6.0266 2.93874 1.08336 8.5 1.08336C9.93796 1.08336 11.1835 1.41784 12.2482 1.91238L13.9682 0.158742C14.1757 -0.0529139 14.5119 -0.0529139 14.7193 0.158742C14.9268 0.370397 14.9269 0.713136 14.7193 0.924656ZM4.55985 9.7515L5.90484 8.38014C5.53337 7.84876 5.3125 7.2008 5.3125 6.50002C5.3125 4.70792 6.74236 3.25003 8.5 3.25003C9.1873 3.25003 9.82281 3.47522 10.344 3.85385L11.4316 2.74492C10.5723 2.39406 9.59584 2.16669 8.5 2.16669C4.25598 2.16669 1.78593 5.52163 1.1564 6.4992C1.55616 7.11697 2.70526 8.68076 4.55985 9.7515ZM6.67609 7.59364L9.57259 4.64034C9.25663 4.45008 8.89286 4.33336 8.5 4.33336C7.32833 4.33336 6.375 5.30537 6.375 6.50002C6.375 6.90058 6.48948 7.27148 6.67609 7.59364Z" fill="#8E8E8E"/>
</svg>
