<svg width="32" height="30" viewBox="0 0 32 30" fill="none" xmlns="http://www.w3.org/2000/svg">
<path d="M31.6215 14.171V23.8895C31.7166 24.7102 31.6249 25.5417 31.3533 26.3219C31.0817 27.1022 30.6372 27.8109 30.053 28.3951C29.4688 28.9792 28.7601 29.4238 27.9799 29.6954C27.1996 29.967 26.3681 30.0587 25.5474 29.9636H6.11049C5.28983 30.0587 4.45828 29.967 3.67806 29.6954C2.89783 29.4238 2.18912 28.9792 1.60494 28.3951C1.02076 27.8109 0.576235 27.1022 0.304618 26.3219C0.0330006 25.5417 -0.058678 24.7102 0.03644 23.8895V7.69206C-0.058678 6.8714 0.0330006 6.03985 0.304618 5.25962C0.576235 4.4794 1.02076 3.77069 1.60494 3.18651C2.18912 2.60233 2.89783 2.1578 3.67806 1.88619C4.45828 1.61457 5.28983 1.52289 6.11049 1.61801H19.0685C19.3906 1.61801 19.6996 1.746 19.9275 1.97382C20.1553 2.20164 20.2833 2.51063 20.2833 2.83282C20.2833 3.15501 20.1553 3.464 19.9275 3.69182C19.6996 3.91964 19.3906 4.04763 19.0685 4.04763H6.11049C3.55615 4.04763 2.46606 5.13772 2.46606 7.69206V22.6747L6.58021 18.5605C6.88603 18.2571 7.2994 18.0868 7.73023 18.0868C8.16107 18.0868 8.57443 18.2571 8.88025 18.5605L10.4028 20.0831C10.5542 20.2315 10.7577 20.3146 10.9697 20.3146C11.1817 20.3146 11.3852 20.2315 11.5366 20.0831L19.5382 12.0816C19.844 11.7781 20.2574 11.6078 20.6882 11.6078C21.119 11.6078 21.5324 11.7781 21.8382 12.0816L29.1919 19.4352V14.171C29.1919 13.8489 29.3199 13.5399 29.5477 13.312C29.7755 13.0842 30.0845 12.9562 30.4067 12.9562C30.7289 12.9562 31.0379 13.0842 31.2657 13.312C31.4935 13.5399 31.6215 13.8489 31.6215 14.171ZM9.33864 8.90686C8.80087 8.90837 8.28567 9.12324 7.9062 9.50431C7.52674 9.88537 7.31402 10.4015 7.31477 10.9392C7.31552 11.477 7.52968 11.9925 7.91021 12.3725C8.29074 12.7525 8.80653 12.9659 9.34431 12.9659C9.88209 12.9659 10.3979 12.7525 10.7784 12.3725C11.1589 11.9925 11.3731 11.477 11.3738 10.9392C11.3746 10.4015 11.1619 9.88537 10.7824 9.50431C10.4029 9.12324 9.88775 8.90837 9.34998 8.90686H9.33864ZM26.4059 4.50116L26.7623 4.14643V7.69206C26.7623 8.01424 26.8902 8.32323 27.1181 8.55105C27.3459 8.77888 27.6549 8.90686 27.9771 8.90686C28.2992 8.90686 28.6082 8.77888 28.8361 8.55105C29.0639 8.32323 29.1919 8.01424 29.1919 7.69206V4.14643L29.5482 4.50116C29.7785 4.71574 30.0831 4.83256 30.3978 4.82701C30.7125 4.82146 31.0128 4.69396 31.2354 4.47139C31.4579 4.24881 31.5854 3.94854 31.591 3.63382C31.5965 3.3191 31.4797 3.01451 31.2651 2.78423L28.8355 0.354607C28.6075 0.127508 28.2989 0 27.9771 0C27.6553 0 27.3466 0.127508 27.1186 0.354607L24.689 2.78423C24.4744 3.01451 24.3576 3.3191 24.3631 3.63382C24.3687 3.94854 24.4962 4.24881 24.7187 4.47139C24.9413 4.69396 25.2416 4.82146 25.5563 4.82701C25.871 4.83256 26.1756 4.71574 26.4059 4.50116Z" fill="#FD5A59"/>
</svg>
