<svg width="799" height="149" viewBox="0 0 799 149" fill="none" xmlns="http://www.w3.org/2000/svg">
<path d="M162.32 108.76C158.27 108.76 154.48 107.64 150.95 105.4C147.42 103.16 144.6 100.21 142.49 96.55C140.38 92.89 139.32 88.99 139.32 84.86V69.87C139.32 65.47 140.37 61.49 142.49 57.91C144.6 54.34 147.42 51.49 150.95 49.38C154.48 47.27 158.36 46.21 162.58 46.21C166.8 46.21 170.48 47.22 173.37 49.25C176.25 51.27 178.39 53.54 179.76 56.03V11.71C179.76 10.85 180.08 10.18 180.73 9.71C181.38 9.24 182.13 9 182.99 9C183.94 9 184.69 9.24 185.25 9.71C185.81 10.18 186.09 10.85 186.09 11.71V105.27C186.09 105.96 185.81 106.59 185.25 107.14C184.69 107.7 183.93 107.98 182.99 107.98C182.22 107.98 181.5 107.7 180.86 107.14C180.21 106.58 179.89 105.96 179.89 105.27V98.94C178.6 101.61 176.34 103.92 173.11 105.85C169.88 107.79 166.28 108.76 162.32 108.76ZM162.84 102.82C166.11 102.82 169.02 101.98 171.56 100.3C174.1 98.62 176.1 96.7 177.57 94.55C179.04 92.4 179.77 90.63 179.77 89.25V69.87C179.77 66.16 178.95 63 177.32 60.37C175.68 57.74 173.59 55.72 171.05 54.3C168.51 52.88 165.82 52.17 162.97 52.17C159.87 52.17 157.01 53.03 154.38 54.75C151.75 56.48 149.64 58.67 148.05 61.34C146.45 64.01 145.66 66.85 145.66 69.87V84.86C145.66 87.88 146.45 90.76 148.05 93.52C149.64 96.28 151.73 98.52 154.32 100.24C156.91 101.96 159.75 102.83 162.85 102.83L162.84 102.82Z" fill="#E83F3F" stroke="#E83F3F" stroke-width="5"/>
<path d="M231.581 108.76C227.271 108.76 223.311 107.66 219.691 105.47C216.071 103.28 213.191 100.36 211.031 96.7498C208.871 93.1298 207.801 89.2498 207.801 85.1198V49.7198C207.801 49.0298 208.121 48.4098 208.771 47.8498C209.421 47.2898 210.171 47.0098 211.031 47.0098C211.891 47.0098 212.621 47.2898 213.231 47.8498C213.831 48.4098 214.131 49.0398 214.131 49.7198V85.1198C214.131 88.1398 214.901 90.9798 216.461 93.6498C218.011 96.3198 220.101 98.5198 222.731 100.24C225.361 101.96 228.301 102.83 231.581 102.83C234.861 102.83 237.781 101.99 240.371 100.31C242.951 98.6298 245.021 96.4298 246.571 93.7198C248.121 91.0098 248.901 88.1498 248.901 85.1298V49.5998C248.901 48.9098 249.221 48.3098 249.871 47.7898C250.521 47.2798 251.271 47.0198 252.131 47.0198C253.081 47.0198 253.831 47.2798 254.391 47.7898C254.951 48.3098 255.231 48.9098 255.231 49.5998V85.1298C255.231 89.3498 254.151 93.2698 252.001 96.8898C249.851 100.51 246.981 103.39 243.411 105.55C239.841 107.7 235.901 108.78 231.591 108.78L231.581 108.76Z" fill="#E83F3F" stroke="#E83F3F" stroke-width="5"/>
<path d="M297.75 138.35C292.75 138.35 288.32 137.64 284.44 136.22C280.56 134.8 277.55 132.84 275.39 130.34C273.24 127.84 272.16 124.87 272.16 121.42C272.16 117.55 273.32 114.46 275.64 112.18C277.97 109.9 280.59 108.24 283.53 107.21C281.29 106.44 279.48 105.4 278.1 104.11C276.72 102.82 276.03 100.84 276.03 98.1703C276.03 95.7603 276.61 93.8603 277.77 92.4803C278.93 91.1003 280.46 89.9403 282.36 88.9903C280.12 87.0903 278.42 84.7503 277.25 81.9503C276.09 79.1503 275.51 76.0703 275.51 72.7103V67.4103C275.51 63.2703 276.4 59.6203 278.16 56.4303C279.92 53.2403 282.42 50.7403 285.65 48.9303C288.88 47.1203 292.65 46.2203 296.96 46.2203C300.06 46.2203 302.9 46.7203 305.49 47.7103C308.08 48.7003 310.31 50.1503 312.21 52.0403C313.41 49.6303 314.9 47.6903 316.66 46.2303C318.43 44.7603 320.09 44.0303 321.64 44.0303C322.76 44.0303 323.58 44.3303 324.09 44.9303C324.61 45.5403 324.87 46.2203 324.87 47.0003C324.87 47.7803 324.65 48.3803 324.22 48.8103C323.79 49.2403 323.23 49.5003 322.54 49.5803C321.51 49.6603 320.3 50.1003 318.92 50.8703C317.54 51.6403 316.25 53.1503 315.05 55.3903C316.25 56.9403 317.14 58.7503 317.7 60.8203C318.26 62.8903 318.54 65.0803 318.54 67.4103V72.7103C318.54 76.7603 317.63 80.4203 315.83 83.6903C314.02 86.9703 311.46 89.5303 308.14 91.3803C304.82 93.2303 301.06 94.1603 296.84 94.1603C292.96 94.1603 289.52 93.3503 286.5 91.7103C285.38 92.3103 284.34 93.0303 283.4 93.8403C282.45 94.6603 281.98 95.8503 281.98 97.4003C281.98 99.4703 282.95 100.93 284.88 101.79C286.82 102.65 289.34 103.26 292.44 103.6C295.54 103.95 298.79 104.31 302.2 104.7C305.6 105.09 308.86 105.78 311.95 106.77C315.05 107.76 317.57 109.31 319.51 111.42C321.45 113.53 322.42 116.53 322.42 120.4C322.42 124.27 321.39 127.55 319.32 130.22C317.25 132.89 314.37 134.91 310.66 136.29C306.96 137.67 302.65 138.36 297.74 138.36L297.75 138.35ZM297.62 133.18C303.56 133.18 308.15 132.04 311.38 129.76C314.61 127.48 316.22 124.44 316.22 120.65C316.22 117.72 315.32 115.5 313.51 113.99C311.7 112.48 309.42 111.4 306.66 110.76C303.9 110.12 301.1 109.68 298.26 109.47C295.42 109.25 292.96 109.01 290.89 108.76C287.62 109.71 284.71 111.11 282.17 112.96C279.63 114.81 278.36 117.41 278.36 120.78C278.36 124.49 280.06 127.48 283.47 129.76C286.87 132.04 291.59 133.18 297.62 133.18ZM297.1 88.8603C301.84 88.8603 305.57 87.3303 308.28 84.2703C310.99 81.2103 312.35 77.3503 312.35 72.7003V67.4003C312.35 62.8303 310.99 59.0403 308.28 56.0303C305.57 53.0103 301.8 51.5103 296.98 51.5103C292.16 51.5103 288.41 53.0203 285.74 56.0303C283.07 59.0503 281.73 62.8403 281.73 67.4003V72.5703C281.73 77.1403 283.07 80.9903 285.74 84.1403C288.41 87.2803 292.2 88.8603 297.11 88.8603H297.1Z" fill="#E83F3F" stroke="#E83F3F" stroke-width="5"/>
<path d="M343.1 107.98C342.24 107.98 341.51 107.7 340.9 107.14C340.3 106.58 340 105.96 340 105.27V49.5797C340 48.8097 340.3 48.1797 340.9 47.7097C341.5 47.2397 342.24 46.9997 343.1 46.9997C344.05 46.9997 344.8 47.2397 345.36 47.7097C345.92 48.1797 346.2 48.8097 346.2 49.5797V56.0397C347.66 53.5397 349.84 51.2797 352.73 49.2597C355.61 47.2397 359.21 46.2197 363.52 46.2197C367.83 46.2197 371.6 47.2797 375.09 49.3897C378.58 51.4997 381.38 54.3397 383.49 57.9197C385.6 61.4997 386.66 65.4797 386.66 69.8797V105.28C386.66 106.14 386.34 106.81 385.69 107.28C385.04 107.76 384.29 107.99 383.43 107.99C382.74 107.99 382.05 107.76 381.36 107.28C380.67 106.81 380.32 106.14 380.32 105.28V69.8797C380.32 66.8597 379.52 64.0197 377.93 61.3497C376.34 58.6797 374.25 56.4797 371.66 54.7597C369.07 53.0397 366.19 52.1797 363 52.1797C360.24 52.1797 357.59 52.8897 355.05 54.3097C352.51 55.7297 350.42 57.7497 348.78 60.3797C347.15 63.0097 346.33 66.1697 346.33 69.8797V105.28C346.33 105.97 346.03 106.6 345.43 107.15C344.82 107.71 344.05 107.99 343.1 107.99V107.98Z" fill="#E83F3F" stroke="#E83F3F" stroke-width="5"/>
<path d="M421.801 108.76C416.811 108.76 412.581 107.36 409.141 104.56C405.701 101.76 403.971 97.48 403.971 91.7C403.971 87.13 405.241 83.6 407.781 81.1C410.321 78.6 413.851 76.86 418.381 75.87C422.911 74.88 428.131 74.38 434.081 74.38H441.061V71.02C441.061 68.01 440.521 65.03 439.441 62.11C438.361 59.18 436.641 56.77 434.271 54.87C431.901 52.98 428.731 52.03 424.771 52.03C422.011 52.03 419.751 52.31 417.991 52.87C416.221 53.43 414.801 54.03 413.721 54.68C412.641 55.33 411.801 55.65 411.201 55.65C410.341 55.65 409.651 55.24 409.131 54.42C408.621 53.61 408.361 52.85 408.361 52.16C408.361 51.12 409.201 50.15 410.881 49.25C412.561 48.35 414.691 47.62 417.281 47.05C419.871 46.48 422.451 46.21 425.031 46.21C430.631 46.21 435.051 47.4 438.271 49.77C441.501 52.14 443.831 55.19 445.251 58.94C446.671 62.69 447.381 66.72 447.381 71.02V105.26C447.381 105.95 447.101 106.58 446.541 107.13C445.981 107.69 445.221 107.97 444.281 107.97C443.421 107.97 442.691 107.69 442.081 107.13C441.481 106.57 441.181 105.95 441.181 105.26V98.93C439.031 101.43 436.341 103.69 433.101 105.71C429.871 107.74 426.101 108.75 421.791 108.75L421.801 108.76ZM422.711 103.07C425.731 103.07 428.631 102.32 431.431 100.81C434.231 99.3 436.531 97.45 438.341 95.25C440.151 93.05 441.051 91.01 441.051 89.11V79.55H434.721C430.501 79.55 426.531 79.78 422.831 80.26C419.121 80.73 416.111 81.81 413.781 83.49C411.461 85.17 410.291 87.82 410.291 91.43C410.291 95.48 411.491 98.43 413.911 100.29C416.321 102.14 419.251 103.07 422.701 103.07H422.711Z" fill="#E83F3F" stroke="#E83F3F" stroke-width="5"/>
<path d="M489.51 108.76C485.46 108.76 481.67 107.64 478.14 105.4C474.61 103.16 471.79 100.21 469.68 96.55C467.57 92.89 466.51 88.99 466.51 84.86V69.87C466.51 65.47 467.56 61.49 469.68 57.91C471.79 54.34 474.61 51.49 478.14 49.38C481.67 47.27 485.55 46.21 489.77 46.21C493.99 46.21 497.67 47.22 500.56 49.25C503.44 51.27 505.58 53.54 506.95 56.03V11.71C506.95 10.85 507.27 10.18 507.92 9.71C508.57 9.24 509.32 9 510.18 9C511.13 9 511.88 9.24 512.44 9.71C513 10.18 513.28 10.85 513.28 11.71V105.27C513.28 105.96 513 106.59 512.44 107.14C511.88 107.7 511.12 107.98 510.18 107.98C509.41 107.98 508.69 107.7 508.05 107.14C507.4 106.58 507.08 105.96 507.08 105.27V98.94C505.79 101.61 503.53 103.92 500.3 105.85C497.07 107.79 493.47 108.76 489.51 108.76ZM490.03 102.82C493.3 102.82 496.21 101.98 498.75 100.3C501.29 98.62 503.29 96.7 504.76 94.55C506.23 92.4 506.96 90.63 506.96 89.25V69.87C506.96 66.16 506.14 63 504.51 60.37C502.87 57.74 500.78 55.72 498.24 54.3C495.7 52.88 493.01 52.17 490.16 52.17C487.06 52.17 484.2 53.03 481.57 54.75C478.94 56.48 476.83 58.67 475.24 61.34C473.64 64.01 472.85 66.85 472.85 69.87V84.86C472.85 87.88 473.64 90.76 475.24 93.52C476.83 96.28 478.92 98.52 481.51 100.24C484.1 101.96 486.94 102.83 490.04 102.83L490.03 102.82Z" fill="#E83F3F" stroke="#E83F3F" stroke-width="5"/>
<path d="M551.281 108.76C547.321 108.76 543.891 108.26 541.011 107.27C538.121 106.28 535.861 105.12 534.231 103.79C532.591 102.45 531.781 101.18 531.781 99.9805C531.781 99.5505 531.891 99.1205 532.101 98.6905C532.311 98.2605 532.611 97.8705 533.001 97.5305C533.391 97.1905 533.751 97.0105 534.101 97.0105C534.961 97.0105 535.951 97.5105 537.071 98.5005C538.191 99.4905 539.831 100.5 541.981 101.54C544.131 102.57 547.191 103.09 551.151 103.09C556.321 103.09 559.981 102.1 562.141 100.12C564.291 98.1405 565.371 95.8105 565.371 93.1405C565.371 90.0405 564.621 87.6105 563.111 85.8405C561.601 84.0705 559.601 82.7205 557.101 81.7705C554.601 80.8205 551.991 79.9805 549.281 79.2505C546.571 78.5105 543.961 77.5905 541.461 76.4705C538.961 75.3505 536.941 73.7605 535.391 71.6905C533.841 69.6205 533.061 66.8205 533.061 63.2905C533.061 60.7105 533.751 58.0805 535.131 55.4105C536.511 52.7405 538.641 50.5405 541.531 48.8205C544.421 47.1005 548.191 46.2305 552.841 46.2305C555.591 46.2305 558.221 46.5105 560.721 47.0705C563.221 47.6305 565.291 48.3605 566.921 49.2705C568.551 50.1705 569.371 51.1005 569.371 52.0505C569.371 52.4005 569.241 52.8505 568.981 53.4105C568.721 53.9705 568.401 54.4405 568.011 54.8305C567.621 55.2205 567.121 55.4105 566.521 55.4105C565.921 55.4105 565.051 55.1105 563.931 54.5105C562.811 53.9105 561.351 53.3305 559.541 52.7705C557.731 52.2105 555.531 51.9305 552.951 51.9305C549.591 51.9305 546.901 52.5305 544.871 53.7405C542.841 54.9405 541.381 56.4105 540.481 58.1305C539.571 59.8505 539.121 61.5405 539.121 63.1705C539.121 65.7605 539.891 67.7805 541.441 69.2405C542.991 70.7105 545.001 71.8405 547.451 72.6605C549.911 73.4805 552.511 74.2805 555.271 75.0505C558.031 75.8205 560.631 76.8605 563.091 78.1505C565.541 79.4405 567.551 81.2305 569.101 83.5205C570.651 85.8005 571.421 88.9305 571.421 92.8805C571.421 97.7105 569.651 101.56 566.121 104.45C562.591 107.34 557.631 108.78 551.261 108.78L551.281 108.76Z" fill="#E83F3F" stroke="#E83F3F" stroke-width="5"/>
<path d="M609.181 107.98C602.801 107.98 597.941 106.51 594.581 103.59C591.221 100.66 589.541 96.0104 589.541 89.6304V20.1104C589.541 19.2504 589.881 18.5804 590.571 18.1104C591.261 17.6404 591.951 17.4004 592.641 17.4004C593.501 17.4004 594.261 17.6404 594.901 18.1104C595.541 18.5804 595.871 19.2504 595.871 20.1104V46.9904H613.051C613.741 46.9904 614.321 47.2504 614.791 47.7604C615.261 48.2804 615.501 48.9704 615.501 49.8304C615.501 50.5204 615.261 51.1504 614.791 51.7004C614.321 52.2604 613.741 52.5404 613.051 52.5404H595.871V89.6304C595.871 94.1104 596.881 97.3004 598.901 99.1904C600.921 101.09 604.351 102.04 609.181 102.04H612.411C613.361 102.04 614.091 102.32 614.611 102.88C615.131 103.44 615.381 104.16 615.381 105.01C615.381 105.78 615.121 106.48 614.611 107.08C614.101 107.68 613.361 107.98 612.411 107.98H609.181Z" fill="#E83F3F" stroke="#E83F3F" stroke-width="5"/>
<path d="M634.631 27.7404C633.341 27.7404 632.191 27.2704 631.211 26.3204C630.221 25.3704 629.721 24.2504 629.721 22.9604C629.721 21.6704 630.221 20.5904 631.211 19.7304C632.201 18.8704 633.341 18.4404 634.631 18.4404C636.011 18.4404 637.151 18.8704 638.061 19.7304C638.961 20.5904 639.411 21.6704 639.411 22.9604C639.411 24.2504 638.961 25.3704 638.061 26.3204C637.151 27.2704 636.011 27.7404 634.631 27.7404ZM634.631 107.98C633.771 107.98 633.041 107.7 632.431 107.14C631.831 106.58 631.531 105.96 631.531 105.27V49.5804C631.531 48.8104 631.831 48.1804 632.431 47.7104C633.031 47.2404 633.771 47.0004 634.631 47.0004C635.581 47.0004 636.351 47.2404 636.961 47.7104C637.561 48.1804 637.861 48.8104 637.861 49.5804V105.27C637.861 105.96 637.561 106.59 636.961 107.14C636.351 107.7 635.581 107.98 634.631 107.98Z" fill="#E83F3F" stroke="#E83F3F" stroke-width="5"/>
<path d="M680.631 108.76C676.581 108.76 672.791 107.64 669.261 105.4C665.731 103.16 662.911 100.21 660.801 96.55C658.691 92.89 657.631 88.99 657.631 84.86V69.87C657.631 65.47 658.681 61.49 660.801 57.91C662.911 54.34 665.731 51.49 669.261 49.38C672.791 47.27 676.671 46.21 680.891 46.21C685.111 46.21 688.791 47.22 691.681 49.25C694.561 51.27 696.701 53.54 698.071 56.03V11.71C698.071 10.85 698.391 10.18 699.041 9.71C699.691 9.24 700.441 9 701.301 9C702.251 9 703.001 9.24 703.561 9.71C704.121 10.18 704.401 10.85 704.401 11.71V105.27C704.401 105.96 704.121 106.59 703.561 107.14C703.001 107.69 702.241 107.98 701.301 107.98C700.531 107.98 699.811 107.7 699.171 107.14C698.521 106.58 698.201 105.96 698.201 105.27V98.94C696.911 101.61 694.651 103.92 691.421 105.85C688.191 107.79 684.591 108.76 680.631 108.76ZM681.151 102.82C684.421 102.82 687.331 101.98 689.871 100.3C692.411 98.62 694.411 96.7 695.881 94.55C697.351 92.4 698.081 90.63 698.081 89.25V69.87C698.081 66.16 697.261 63 695.631 60.37C693.991 57.74 691.901 55.72 689.361 54.3C686.821 52.88 684.131 52.17 681.281 52.17C678.181 52.17 675.321 53.03 672.691 54.75C670.061 56.48 667.951 58.67 666.361 61.34C664.761 64.01 663.971 66.85 663.971 69.87V84.86C663.971 87.88 664.761 90.76 666.361 93.52C667.951 96.28 670.041 98.52 672.631 100.24C675.221 101.96 678.061 102.83 681.161 102.83L681.151 102.82Z" fill="#E83F3F" stroke="#E83F3F" stroke-width="5"/>
<path d="M719.889 108.37C719.209 108.37 718.659 108.14 718.239 107.67C717.819 107.21 717.609 106.68 717.609 106.08C717.609 105.45 717.819 104.91 718.239 104.46C718.669 104.02 719.209 103.8 719.889 103.8C720.479 103.8 720.999 104.02 721.439 104.46C721.879 104.9 722.109 105.45 722.109 106.08C722.109 106.67 721.889 107.2 721.439 107.67C720.999 108.13 720.479 108.37 719.889 108.37Z" fill="#E83F3F"/>
<path d="M736.4 107.98C736.1 107.98 735.85 107.86 735.64 107.63C735.43 107.4 735.32 107.13 735.32 106.84V79.1004C735.32 78.7604 735.43 78.5004 735.64 78.3104C735.85 78.1204 736.1 78.0204 736.4 78.0204C736.74 78.0204 737.01 78.1204 737.22 78.3104C737.43 78.5004 737.54 78.7704 737.54 79.1004V82.4704C738.26 81.2404 739.32 80.1304 740.75 79.1404C742.17 78.1504 743.93 77.6504 746.05 77.6504C748.17 77.6504 750.03 78.1704 751.76 79.2104C753.49 80.2504 754.88 81.6204 755.92 83.3304C756.96 85.0504 757.47 86.9604 757.47 89.0804V106.85C757.47 107.23 757.35 107.51 757.12 107.7C756.89 107.89 756.62 107.99 756.33 107.99C756.08 107.99 755.83 107.89 755.6 107.7C755.37 107.51 755.25 107.23 755.25 106.85V89.0804C755.25 87.5104 754.84 86.0304 754.01 84.6304C753.18 83.2404 752.09 82.0904 750.74 81.2004C749.39 80.3104 747.88 79.8704 746.24 79.8704C744.8 79.8704 743.42 80.2404 742.08 80.9804C740.74 81.7204 739.65 82.7704 738.81 84.1204C737.96 85.4704 737.54 87.1204 737.54 89.0704V106.84C737.54 107.14 737.43 107.4 737.22 107.63C737.01 107.86 736.73 107.98 736.4 107.98Z" fill="#E83F3F" stroke="#E83F3F" stroke-width="5"/>
<path d="M778.48 108.37C776.49 108.37 774.64 107.83 772.93 106.75C771.22 105.67 769.84 104.26 768.8 102.5C767.76 100.74 767.25 98.8504 767.25 96.8204V89.0804C767.25 87.0504 767.75 85.1704 768.77 83.4304C769.78 81.6904 771.15 80.3004 772.87 79.2404C774.58 78.1804 776.46 77.6504 778.48 77.6504C780.5 77.6504 782.39 78.1704 784.1 79.2104C785.81 80.2504 787.19 81.6204 788.23 83.3304C789.27 85.0504 789.78 86.9604 789.78 89.0804V96.8204C789.78 98.8104 789.26 100.69 788.23 102.47C787.19 104.25 785.82 105.68 784.1 106.75C782.39 107.83 780.51 108.37 778.48 108.37ZM778.48 106.14C780.17 106.14 781.69 105.7 783.05 104.81C784.41 103.92 785.49 102.76 786.32 101.32C787.14 99.8804 787.56 98.3804 787.56 96.8104V89.0704C787.56 87.5004 787.16 86.0204 786.36 84.6204C785.55 83.2304 784.46 82.0804 783.09 81.1904C781.71 80.3004 780.18 79.8604 778.49 79.8604C776.8 79.8604 775.28 80.3104 773.92 81.1904C772.57 82.0804 771.48 83.2204 770.68 84.6204C769.87 86.0204 769.48 87.5004 769.48 89.0704V96.8104C769.48 98.3804 769.88 99.8804 770.68 101.32C771.48 102.76 772.58 103.92 773.95 104.81C775.33 105.7 776.84 106.14 778.49 106.14H778.48Z" fill="#E83F3F" stroke="#E83F3F" stroke-width="5"/>
<path d="M46.6106 65.1295C46.3506 65.3995 46.1006 65.6595 45.8406 65.9195C44.6106 67.1995 43.3406 68.5095 42.0706 69.7795L41.6806 70.1695C40.0606 71.7895 38.3806 73.4595 36.8306 75.2095C36.5706 75.4995 36.3106 75.7995 36.0506 76.0995C35.2006 77.0695 34.3906 77.9995 33.5106 78.8395C32.8306 78.1795 32.1306 77.4895 31.4506 76.7995C30.9306 76.2795 30.4106 75.7395 29.8906 75.1995C28.6106 73.8795 27.3006 72.5195 25.8906 71.2895C26.8906 70.2495 27.8706 69.1895 28.8206 68.1595C30.1006 66.7795 31.4206 65.3595 32.7506 64.0095C33.2306 63.5195 33.7206 63.0395 34.2206 62.5595C35.0006 61.7895 35.8106 60.9995 36.5806 60.1895C36.7506 60.0195 36.9206 59.8395 37.0906 59.6595C37.6606 59.0795 38.2706 58.4395 38.8506 57.7695C39.9306 58.7995 41.1106 59.9295 42.0606 60.9195C42.2906 61.1495 42.5506 61.3495 42.7906 61.5595C43.4206 62.1195 44.0506 62.7195 44.6606 63.3095C45.2906 63.9195 45.9406 64.5295 46.6106 65.1295Z" fill="#E83F3F"/>
<path d="M73.8209 71.4204C73.5109 71.7604 73.2009 72.1104 72.9009 72.4604C72.5809 72.8304 72.2809 73.1804 71.9709 73.5104C70.8809 74.6804 69.7809 75.8504 68.6809 77.0204C66.7509 79.0804 64.7109 81.1104 62.7509 83.0904L61.8709 83.9704C59.8109 86.0404 57.4809 88.3804 55.1409 90.5904C54.7209 90.9904 54.2909 91.3804 53.8609 91.7804C53.1909 92.3904 52.5009 93.0304 51.8309 93.6904L51.5809 93.9304C50.9609 94.5504 50.3609 95.1404 49.7309 95.7004C48.6609 94.7304 47.6909 93.6304 46.6809 92.4704C46.1309 91.8404 45.5609 91.1904 44.9709 90.5604L44.7609 90.3404C42.6609 88.1004 40.4909 85.7904 38.2809 83.5604C37.6409 82.9204 37.0009 82.2904 36.3809 81.6804C37.3209 80.7904 38.1809 79.8404 39.0109 78.9004C39.4109 78.4504 39.8309 77.9804 40.2409 77.5404C41.5109 76.1804 42.8509 74.8404 44.1609 73.5504C45.1609 72.5504 46.2009 71.5204 47.2009 70.4804L47.6809 69.9804C49.7909 67.7904 51.9609 65.5404 54.1509 63.3604C55.0609 62.4504 55.9509 61.5104 56.8109 60.5904C57.8009 59.5404 58.8209 58.4604 59.8709 57.4404C60.3509 57.9504 60.8609 58.4404 61.3509 58.9304C61.7409 59.3104 62.1409 59.7104 62.5109 60.1004C62.9409 60.5404 63.3609 60.9904 63.7909 61.4304C64.7309 62.4104 65.7009 63.4204 66.6909 64.4004C67.5109 65.2104 68.3609 66.0004 69.1809 66.7704C70.7609 68.2504 72.3909 69.7704 73.8209 71.4204Z" fill="#E83F3F"/>
<path d="M49.87 26.6897C22.33 26.6897 0 49.0197 0 76.5597C0 104.1 22.33 126.44 49.87 126.44C77.41 126.44 99.75 104.11 99.75 76.5597C99.75 49.0097 77.42 26.6797 49.87 26.6797V26.6897ZM78.7 72.5997C77.96 73.6897 76.97 74.6097 76.02 75.4997C75.68 75.8197 75.35 76.1297 75.04 76.4297L74.56 76.9097C73.58 77.8797 72.6 78.8597 71.62 79.8297C70.32 81.1197 69.01 82.4497 67.75 83.7397C66.74 84.7697 65.73 85.7897 64.71 86.8097C63.65 87.8697 62.59 88.9697 61.57 90.0397C60.4 91.2597 59.19 92.5097 57.97 93.7297C57.55 94.1497 57.12 94.5597 56.69 94.9697C56.05 95.5897 55.39 96.2297 54.76 96.8697L54.59 97.0497C53.58 98.0997 52.53 99.1797 51.32 100.12C50.92 100.43 50.45 100.59 49.98 100.59C49.7 100.59 49.45 100.59 49.17 100.51C48.85 100.42 48.5 100.23 48.21 100.02C46.26 98.5697 44.65 96.7497 43.1 94.9997C42.7 94.5497 42.3 94.0997 41.9 93.6597L41.39 93.0997C39.47 90.9897 37.49 88.8097 35.49 86.7197C34.62 85.8097 33.71 84.8897 32.73 83.9197C31.84 83.0897 31.77 82.9497 30.8 82.0397C30.01 81.2797 29.3 80.6097 28.63 79.9897C28.1 79.4997 27.56 79.0197 27.02 78.5397C25.07 76.7897 23.06 74.9897 21.43 72.8797C21.26 72.6597 21.08 72.3997 20.97 72.1497C20.5 71.1097 20.59 69.9197 21.46 69.0497C22.37 68.1397 23.28 67.2397 24.19 66.3297C25.95 64.5697 27.78 62.7597 29.56 60.9597C30.48 60.0297 31.42 59.1097 32.33 58.2097C32.69 57.8497 33.05 57.4997 33.41 57.1497L33.89 56.6697C34.35 56.2197 34.83 55.7397 35.29 55.2697C35.51 55.0497 35.71 54.7997 35.93 54.5497C36.3 54.1197 36.68 53.6697 37.14 53.2697C37.76 52.7297 38.59 52.5097 39.39 52.6197C39.99 52.7097 40.59 53.0697 41.06 53.4997C41.63 54.0197 42.13 54.5697 42.63 55.1097C42.92 55.4297 43.19 55.7297 43.48 56.0197C44.24 56.7997 45.06 57.5297 45.84 58.2097C46.55 58.8297 47.22 59.4897 47.88 60.1197C48.52 60.7397 49.13 61.3397 49.77 61.8997C50.87 60.7797 51.41 60.2197 52.52 59.1197C52.99 58.6497 54.28 57.2997 54.6 56.9397C55.95 55.4097 58.04 53.5197 58.08 53.4897C58.38 53.2297 58.79 52.8697 59.16 52.6897C59.8 52.3897 60.97 52.4897 61.56 52.8997C62.94 53.8597 63.64 54.7297 64.76 55.9097C65.08 56.2397 66.58 57.7297 66.9 58.0497C68.39 59.5697 68.91 60.1597 70.18 61.3897C72.01 63.1597 76.86 68.2697 77.28 68.7197C77.62 69.0897 78.69 70.0597 78.9 70.5197C79.21 71.1897 79.13 71.9597 78.71 72.5797L78.7 72.5997Z" fill="#E83F3F"/>
</svg>
