<svg width="81" height="82" viewBox="0 0 81 82" fill="none" xmlns="http://www.w3.org/2000/svg">
<rect width="81" height="82" fill="#F5F0E9"/>
<path d="M52.0625 40.0625H41.9375V29.9375C41.9375 29.4197 41.5178 29 41 29C40.4822 29 40.0625 29.4197 40.0625 29.9375V40.0625H29.9375C29.4197 40.0625 29 40.4822 29 41C29 41.5178 29.4197 41.9375 29.9375 41.9375H40.0625V52.0625C40.0625 52.5803 40.4822 53 41 53C41.5178 53 41.9375 52.5803 41.9375 52.0625V41.9375H52.0625C52.5803 41.9375 53 41.5178 53 41C53 40.4822 52.5803 40.0625 52.0625 40.0625Z" fill="#8D8D8D"/>
</svg>
