<svg width="28" height="28" viewBox="0 0 28 28" fill="none" xmlns="http://www.w3.org/2000/svg">
<path fill-rule="evenodd" clip-rule="evenodd" d="M0 14C0 6.26801 6.26801 0 14 0C21.732 0 28 6.26801 28 14C28 21.732 21.732 28 14 28C6.26801 28 0 21.732 0 14Z" fill="#FD5A59"/>
<path d="M10.5 19C10.225 19 9.98958 18.9021 9.79375 18.7063C9.59792 18.5104 9.5 18.275 9.5 18V12.3625C9.35 12.2708 9.22917 12.1521 9.1375 12.0063C9.04583 11.8604 9 11.6917 9 11.5V10C9 9.725 9.09792 9.48958 9.29375 9.29375C9.48958 9.09792 9.725 9 10 9H18C18.275 9 18.5104 9.09792 18.7063 9.29375C18.9021 9.48958 19 9.725 19 10V11.5C19 11.6917 18.9542 11.8604 18.8625 12.0063C18.7708 12.1521 18.65 12.2708 18.5 12.3625V18C18.5 18.275 18.4021 18.5104 18.2063 18.7063C18.0104 18.9021 17.775 19 17.5 19H10.5ZM10.5 12.5V18H17.5V12.5H10.5ZM10 11.5H18V10H10V11.5ZM12.5 15H15.5V14H12.5V15Z" fill="white"/>
</svg>
