<svg width="28" height="28" viewBox="0 0 28 28" fill="none" xmlns="http://www.w3.org/2000/svg">
<path fill-rule="evenodd" clip-rule="evenodd" d="M0 14C0 6.26801 6.26801 0 14 0C21.732 0 28 6.26801 28 14C28 21.732 21.732 28 14 28C6.26801 28 0 21.732 0 14Z" fill="#FD5A59"/>
<path d="M16.6663 11.3333V9.33333H11.333V11.3333H9.99967V8H17.9997V11.3333H16.6663ZM17.9997 14.3333C18.1886 14.3333 18.3469 14.2694 18.4747 14.1417C18.6025 14.0139 18.6663 13.8556 18.6663 13.6667C18.6663 13.4778 18.6025 13.3194 18.4747 13.1917C18.3469 13.0639 18.1886 13 17.9997 13C17.8108 13 17.6525 13.0639 17.5247 13.1917C17.3969 13.3194 17.333 13.4778 17.333 13.6667C17.333 13.8556 17.3969 14.0139 17.5247 14.1417C17.6525 14.2694 17.8108 14.3333 17.9997 14.3333ZM16.6663 18.6667V16H11.333V18.6667H16.6663ZM17.9997 20H9.99967V17.3333H7.33301V13.3333C7.33301 12.7667 7.52745 12.2917 7.91634 11.9083C8.30523 11.525 8.77745 11.3333 9.33301 11.3333H18.6663C19.233 11.3333 19.708 11.525 20.0913 11.9083C20.4747 12.2917 20.6663 12.7667 20.6663 13.3333V17.3333H17.9997V20ZM19.333 16V13.3333C19.333 13.1444 19.2691 12.9861 19.1413 12.8583C19.0136 12.7306 18.8552 12.6667 18.6663 12.6667H9.33301C9.14412 12.6667 8.98579 12.7306 8.85801 12.8583C8.73023 12.9861 8.66634 13.1444 8.66634 13.3333V16H9.99967V14.6667H17.9997V16H19.333Z" fill="white"/>
</svg>
