<svg width="22" height="22" viewBox="0 0 22 22" fill="none" xmlns="http://www.w3.org/2000/svg">
<g clip-path="url(#clip0_423_2821)">
<path d="M21.3801 10.0176H16.9848L15.0205 11.9819H18.4643C18.6466 11.9831 18.8261 12.0271 18.9884 12.1103L21.3801 10.0176Z" fill="white"/>
<path d="M11.3926 19.0527H12.9644V19.8385H11.3926V19.0527Z" fill="white"/>
<path d="M19.6424 13.1607V20.3916L21.8817 18.1524C21.957 18.0798 21.9996 17.9796 21.9995 17.875V10.5195L19.5352 12.6759C19.6054 12.8279 19.6419 12.9933 19.6424 13.1607Z" fill="white"/>
<path d="M8.91786 21.2981L8.92495 21.2914C8.99611 21.218 9.03585 21.1198 9.03573 21.0176V13.1604C9.03573 12.9435 8.85985 12.7676 8.64286 12.7676H0.392863C0.175914 12.7676 0 12.9434 0 13.1604V21.0176C0 21.2345 0.175871 21.4104 0.392863 21.4104H8.64286C8.74577 21.4107 8.8446 21.3703 8.91786 21.2981ZM3.92859 19.839C3.92859 20.2729 3.5768 20.6247 3.14286 20.6247H1.57141C1.13747 20.6247 0.785684 20.2729 0.785684 19.839V19.0533C0.785684 18.6193 1.13747 18.2675 1.57141 18.2675H3.14282C3.57676 18.2675 3.92855 18.6193 3.92855 19.0533L3.92859 19.839ZM7.85714 20.6247H6.67855C6.4616 20.6247 6.28568 20.4488 6.28568 20.2319C6.28568 20.0149 6.46155 19.839 6.67855 19.839H7.85714C8.07409 19.839 8.25 20.0149 8.25 20.2319C8.25 20.4488 8.07413 20.6247 7.85714 20.6247ZM7.85714 19.0533H6.67855C6.4616 19.0533 6.28568 18.8774 6.28568 18.6604C6.28568 18.4435 6.46155 18.2676 6.67855 18.2676H7.85714C8.07409 18.2676 8.25 18.4434 8.25 18.6604C8.25 18.8774 8.07413 19.0533 7.85714 19.0533Z" fill="white"/>
<path d="M1.57129 19.0527H3.14313V19.8385H1.57129V19.0527Z" fill="white"/>
<path d="M18.7348 21.3001L18.7392 21.2926L18.7466 21.2855C18.8162 21.2135 18.8557 21.1177 18.857 21.0176V13.1604C18.857 12.9435 18.6811 12.7676 18.4642 12.7676H10.2142C9.9972 12.7676 9.82129 12.9434 9.82129 13.1604V21.0176C9.82129 21.2345 9.99716 21.4104 10.2142 21.4104H18.4642C18.5652 21.4098 18.6622 21.3703 18.7348 21.3001ZM13.7498 19.839C13.7498 20.2729 13.398 20.6247 12.9641 20.6247H11.3927C10.9588 20.6247 10.607 20.2729 10.607 19.839V19.0533C10.607 18.6193 10.9588 18.2675 11.3927 18.2675H12.9641C13.398 18.2675 13.7498 18.6193 13.7498 19.0533V19.839ZM17.6784 20.6247H16.4998C16.2829 20.6247 16.107 20.4488 16.107 20.2319C16.107 20.0149 16.2828 19.839 16.4998 19.839H17.6784C17.8954 19.839 18.0713 20.0149 18.0713 20.2319C18.0712 20.4488 17.8954 20.6247 17.6784 20.6247ZM17.6784 19.0533H16.4998C16.2829 19.0533 16.107 18.8774 16.107 18.6604C16.107 18.4435 16.2828 18.2676 16.4998 18.2676H17.6784C17.8954 18.2676 18.0713 18.4434 18.0713 18.6604C18.0712 18.8774 17.8954 19.0533 17.6784 19.0533Z" fill="white"/>
<path d="M14.2742 2.68162L16.666 0.588867H13.4921L10.9668 2.55314H13.7501C13.9325 2.55434 14.112 2.59839 14.2742 2.68162Z" fill="white"/>
<path d="M9.15611 0.702007C9.13914 0.719409 9.12062 0.735179 9.10073 0.749143L6.53223 2.55314H9.68686L12.2121 0.58887H9.42875C9.3264 0.588483 9.22813 0.629261 9.15611 0.702007Z" fill="white"/>
<path d="M17.1678 8.72125C17.2426 8.64924 17.2851 8.55007 17.2857 8.44625V1.09082L14.8213 3.24721C14.8915 3.39919 14.9281 3.56457 14.9285 3.73198V10.9641L17.1678 8.72125Z" fill="white"/>
<path d="M4.04869 10.1307C4.03172 10.1481 4.0132 10.1639 3.9933 10.1779L1.4248 11.9819H4.39364C4.34711 11.856 4.32266 11.7231 4.32137 11.589V10.0176C4.21898 10.0172 4.12071 10.0579 4.04869 10.1307Z" fill="white"/>
<path d="M6.67871 9.625H8.25055V10.4107H6.67871V9.625Z" fill="white"/>
<path d="M5.50029 11.9817H13.7503C13.8531 11.9821 13.9519 11.9419 14.0253 11.8698L14.0331 11.8619C14.104 11.7887 14.1435 11.6907 14.1431 11.5889V3.73173C14.1431 3.51478 13.9673 3.33887 13.7503 3.33887H5.50029C5.28334 3.33887 5.10742 3.51474 5.10742 3.73173V11.5889C5.10742 11.8059 5.28334 11.9817 5.50029 11.9817ZM11.786 8.83887H12.9646C13.1816 8.83887 13.3575 9.01474 13.3575 9.23173C13.3575 9.44868 13.1816 9.62459 12.9646 9.62459H11.786C11.5691 9.62459 11.3931 9.44872 11.3931 9.23173C11.3931 9.01478 11.569 8.83887 11.786 8.83887ZM11.786 10.4103H12.9646C13.1816 10.4103 13.3575 10.5862 13.3575 10.8032C13.3575 11.0202 13.1816 11.196 12.9646 11.196H11.786C11.5691 11.196 11.3931 11.0202 11.3931 10.8032C11.3931 10.5862 11.569 10.4103 11.786 10.4103ZM5.89315 9.62459C5.89315 9.19065 6.24493 8.83887 6.67888 8.83887H8.25029C8.68423 8.83887 9.03601 9.19065 9.03601 9.62459V10.4103C9.03601 10.8443 8.68423 11.196 8.25029 11.196H6.67888C6.24493 11.196 5.89315 10.8443 5.89315 10.4103V9.62459Z" fill="white"/>
</g>
<defs>
<clipPath id="clip0_423_2821">
<rect width="22" height="22" fill="white"/>
</clipPath>
</defs>
</svg>
