<svg width="18" height="18" viewBox="0 0 18 18" fill="none" xmlns="http://www.w3.org/2000/svg">
<g clip-path="url(#clip0_537_2250)">
<path d="M5.40029 14.4H12.6003V12.6H5.40029V14.4ZM5.40029 10.8H12.6003V9H5.40029V10.8ZM3.60029 18C3.10529 18 2.68154 17.8238 2.32904 17.4713C1.97654 17.1188 1.80029 16.695 1.80029 16.2V1.8C1.80029 1.305 1.97654 0.88125 2.32904 0.52875C2.68154 0.17625 3.10529 0 3.60029 0H10.8003L16.2003 5.4V16.2C16.2003 16.695 16.024 17.1188 15.6715 17.4713C15.319 17.8238 14.8953 18 14.4003 18H3.60029ZM9.90029 6.3V1.8H3.60029V16.2H14.4003V6.3H9.90029Z" fill="white"/>
</g>
<defs>
<clipPath id="clip0_537_2250">
<rect width="18" height="18" fill="white"/>
</clipPath>
</defs>
</svg>
