<svg width="28" height="28" viewBox="0 0 28 28" fill="none" xmlns="http://www.w3.org/2000/svg">
<path fill-rule="evenodd" clip-rule="evenodd" d="M0 14C0 6.26801 6.26801 0 14 0C21.732 0 28 6.26801 28 14C28 21.732 21.732 28 14 28C6.26801 28 0 21.732 0 14Z" fill="#FD5A59"/>
<path d="M12.8333 12.6875L14 12.1042L15.1667 12.6875V9.91667H12.8333V12.6875ZM11.0833 16.9167V15.75H14V16.9167H11.0833ZM9.91667 19.25C9.59583 19.25 9.32118 19.1358 9.09271 18.9073C8.86424 18.6788 8.75 18.4042 8.75 18.0833V9.91667C8.75 9.59583 8.86424 9.32118 9.09271 9.09271C9.32118 8.86424 9.59583 8.75 9.91667 8.75H18.0833C18.4042 8.75 18.6788 8.86424 18.9073 9.09271C19.1358 9.32118 19.25 9.59583 19.25 9.91667V18.0833C19.25 18.4042 19.1358 18.6788 18.9073 18.9073C18.6788 19.1358 18.4042 19.25 18.0833 19.25H9.91667ZM9.91667 18.0833H18.0833V9.91667H16.3333V14.5833L14 13.4167L11.6667 14.5833V9.91667H9.91667V18.0833Z" fill="white"/>
</svg>
