<svg width="26" height="26" viewBox="0 0 26 26" fill="none" xmlns="http://www.w3.org/2000/svg">
<path d="M25.4507 11.3588C25.1864 10.813 24.7458 10.3724 24.2002 10.1082L3.86938 0.270217C2.53008 -0.378644 0.918425 0.181116 0.269564 1.52042C-0.0609979 2.2028 -0.0887859 2.99292 0.193094 3.69683L3.72839 12.5333L0.193094 21.3707C-0.357562 22.757 0.319877 24.3272 1.70617 24.8778C2.01963 25.0024 2.35367 25.067 2.69097 25.0686C3.09905 25.0686 3.50187 24.9765 3.86938 24.7991L24.2001 14.9585C25.5395 14.3098 26.0994 12.6981 25.4507 11.3588ZM3.08705 23.1797C2.64055 23.3958 2.10336 23.2091 1.88722 22.7626C1.77707 22.5351 1.76791 22.2718 1.8619 22.0371L5.30378 13.4315H23.2328L3.08705 23.1797ZM5.30383 11.6351L1.86196 3.02944C1.7187 2.68641 1.80764 2.29027 2.08379 2.04144C2.35109 1.78098 2.7547 1.71988 3.08705 1.88966L23.2328 11.6351H5.30383Z" fill="#8E8E8E"/>
</svg>
