<svg width="22" height="22" viewBox="0 0 22 22" fill="none" xmlns="http://www.w3.org/2000/svg">
<g clip-path="url(#clip0_423_2788)">
<path fill-rule="evenodd" clip-rule="evenodd" d="M20.1954 12.9352C19.5047 12.5373 19.0757 11.796 19.0757 10.9998C19.0757 10.204 19.5046 9.46273 20.1933 9.06523C20.9002 8.65887 21.1942 7.81454 20.8921 7.05777C20.5135 6.10185 19.998 5.209 19.3637 4.40368C18.8582 3.7625 17.9803 3.59458 17.2735 4.00355C16.5848 4.40368 15.7269 4.40488 15.0363 4.00656C14.3476 3.60824 13.9207 2.86578 13.9227 2.06816C13.9227 1.25218 13.3387 0.574991 12.5312 0.458202C11.5163 0.311206 10.4853 0.312023 9.46636 0.46121C8.66086 0.578816 8.07692 1.25562 8.07889 2.06996C8.07889 2.8666 7.65196 3.60863 6.9633 4.00656C6.27257 4.40445 5.41677 4.40364 4.72609 4.00394C4.01929 3.59496 3.14131 3.7637 2.63587 4.40488C2.32173 4.80441 2.03173 5.23151 1.77602 5.67512C1.52027 6.11796 1.29675 6.58211 1.10747 7.05391C0.803382 7.81187 1.09742 8.65741 1.80421 9.0648C2.49493 9.4623 2.92385 10.2039 2.92385 10.9998C2.92385 11.7956 2.49493 12.5366 1.80623 12.9347C1.09944 13.3411 0.805445 14.185 1.10747 14.9416C1.48607 15.8981 2.00157 16.791 2.63587 17.5959C3.14131 18.237 4.01929 18.405 4.72609 17.996C5.41479 17.5959 6.27262 17.595 6.9633 17.993C7.65196 18.3913 8.07889 19.1338 8.07889 19.9314C8.07687 20.7471 8.66284 21.4243 9.46833 21.5414C9.97377 21.6145 10.4812 21.6509 10.9887 21.6509C11.5042 21.6509 12.0197 21.6134 12.5332 21.5383C13.3387 21.4205 13.9226 20.7443 13.9226 19.93C13.9206 19.1329 14.3475 18.3909 15.0362 17.993C15.7269 17.5951 16.5827 17.5959 17.2734 17.9956C17.9802 18.4046 18.8582 18.2362 19.3636 17.5947C19.6777 17.1949 19.9677 16.7678 20.2235 16.3248C20.4772 15.882 20.7047 15.4178 20.892 14.9456C21.1962 14.1877 20.9022 13.3419 20.1954 12.9352ZM13.7394 12.582C13.3185 13.3138 12.6359 13.8375 11.8184 14.0562C11.0028 14.2749 10.149 14.1627 9.41802 13.7398C7.90775 12.8675 7.38821 10.9289 8.26014 9.41762C8.84412 8.4039 9.91138 7.83645 11.0048 7.83645C11.5425 7.83645 12.0842 7.97258 12.5815 8.25974C14.0918 9.13187 14.6113 11.0711 13.7394 12.582Z" fill="white"/>
</g>
<defs>
<clipPath id="clip0_423_2788">
<rect width="22" height="22" fill="white"/>
</clipPath>
</defs>
</svg>
