<svg width="22" height="22" viewBox="0 0 22 22" fill="none" xmlns="http://www.w3.org/2000/svg">
<g clip-path="url(#clip0_423_2795)">
<path d="M10.3523 21.9724V12.8203L4.60742 19.9227C6.29347 21.1412 8.27145 21.8508 10.3523 21.9724Z" fill="white"/>
<path d="M11.6396 11.6445V21.9729C14.3157 21.8166 16.8231 20.6889 18.7583 18.7565C20.6939 16.8237 21.8242 14.3188 21.9808 11.6445H11.6396Z" fill="white"/>
<path d="M17.4297 6.14258H19.0385V10.356H17.4297V6.14258Z" fill="white"/>
<path d="M3.23752 3.24416C1.14976 5.33089 0 8.08545 0 11.0004C0 13.9153 1.14976 16.6698 3.23752 18.7566C3.3587 18.8776 3.48232 18.9953 3.60791 19.11L10.3519 10.7724V0.0273438C7.67499 0.184137 5.17017 1.31245 3.23752 3.24416Z" fill="white"/>
<path d="M11.6396 4.86328H13.2444V10.3562H11.6396V4.86328Z" fill="white"/>
<path d="M14.5332 1.76367H16.142V10.3562H14.5332V1.76367Z" fill="white"/>
<path d="M20.3271 7.86523H22.0004V10.3564H20.3271V7.86523Z" fill="white"/>
</g>
<defs>
<clipPath id="clip0_423_2795">
<rect width="22" height="22" fill="white"/>
</clipPath>
</defs>
</svg>
