<svg width="50" height="50" viewBox="0 0 50 50" fill="none" xmlns="http://www.w3.org/2000/svg">
<path d="M0.25 25C0.25 11.331 11.331 0.25 25 0.25C38.669 0.25 49.75 11.331 49.75 25C49.75 38.669 38.669 49.75 25 49.75C11.331 49.75 0.25 38.669 0.25 25Z" fill="white"/>
<path d="M0.25 25C0.25 11.331 11.331 0.25 25 0.25C38.669 0.25 49.75 11.331 49.75 25C49.75 38.669 38.669 49.75 25 49.75C11.331 49.75 0.25 38.669 0.25 25Z" stroke="#CACACA" stroke-width="0.5"/>
<path d="M24.5444 30.8068V19.5568H26.4535V30.8068H24.5444ZM19.8739 26.1364V24.2273H31.1239V26.1364H19.8739Z" fill="#A6A6A6"/>
</svg>
