<svg width="109" height="109" viewBox="0 0 109 109" fill="none" xmlns="http://www.w3.org/2000/svg">
<path d="M54.4991 104.778C82.2671 104.778 104.777 82.268 104.777 54.5001C104.777 26.7321 82.2671 4.22168 54.4991 4.22168C26.7311 4.22168 4.2207 26.7321 4.2207 54.5001C4.2207 82.268 26.7311 104.778 54.4991 104.778Z" fill="#EA5154"/>
<path d="M54.5 109C24.4511 109 0 84.5531 0 54.5C0 24.4511 24.4511 0 54.5 0C84.5531 0 109 24.4511 109 54.5C109 84.5531 84.5531 109 54.5 109ZM54.5 8.44303C29.1032 8.44303 8.44303 29.1032 8.44303 54.5C8.44303 79.8968 29.1032 100.557 54.5 100.557C79.8968 100.557 100.557 79.8925 100.557 54.5C100.557 29.1032 79.8968 8.44303 54.5 8.44303Z" fill="#EA5154"/>
<path fill-rule="evenodd" clip-rule="evenodd" d="M52.3802 80.7735C51.2761 81.8776 49.4602 81.8774 48.3564 80.7737L28.226 60.6433C27.1227 59.54 27.1224 57.7237 28.226 56.6195C28.2261 56.6194 28.2262 56.6193 28.2262 56.6193L54.4473 30.3985H75.7558C77.3171 30.3985 78.6013 31.6826 78.6016 33.2435C78.6016 33.2436 78.6016 33.2437 78.6016 33.2437L78.6009 54.5522L52.3802 80.7735ZM45.9534 83.1769C48.3845 85.6078 52.352 85.6077 54.7832 83.1767L81.5016 56.4576C81.8203 56.1389 81.9993 55.7067 81.9993 55.2561L82 33.2434C81.9997 29.8055 79.1938 27 75.7558 27H53.7435C53.2928 27 52.8606 27.179 52.542 27.4977L25.8228 54.2166C23.3925 56.6477 23.3922 60.6156 25.823 63.0464L45.9534 83.1769Z" fill="white"/>
<path fill-rule="evenodd" clip-rule="evenodd" d="M63.4645 45.3891C65.4171 47.537 68.5829 47.5369 70.5355 45.3891C72.488 43.2414 72.4883 39.7591 70.5357 37.6114C70.5356 37.6113 70.5356 37.6113 70.5355 37.6112C70.5355 37.6112 70.5354 37.6111 70.5354 37.611C68.5827 35.4628 65.417 35.4632 63.4646 37.611C63.4645 37.6111 63.4644 37.6112 63.4643 37.6113C61.5117 39.759 61.512 43.2413 63.4644 45.389C63.4645 45.389 63.4645 45.3891 63.4645 45.3891ZM68.2852 42.9137C67.5753 43.6945 66.4245 43.6945 65.7149 42.9138L65.7148 42.9137C65.0049 42.1328 65.0051 40.867 65.7147 40.0867L65.715 40.0864C66.4247 39.3055 67.5753 39.3055 68.285 40.0864L68.2853 40.0867C68.9949 40.867 68.9951 42.1328 68.2852 42.9137Z" fill="white"/>
</svg>
