<svg fill="none" height="64" viewBox="0 0 64 64" width="64" xmlns="http://www.w3.org/2000/svg"><g clip-rule="evenodd" fill="rgb(0,0,0)" fill-rule="evenodd"><path d="m38 2c-2.1472 0-4.1815.48338-6 1.34726-1.8185-.86388-3.8528-1.34726-6-1.34726-7.732 0-14 6.26801-14 14 0 7.732 6.268 14 14 14 2.1472 0 4.1815-.4834 6-1.3473 1.8185.8639 3.8528 1.3473 6 1.3473 7.732 0 14-6.268 14-14 0-7.73199-6.268-14-14-14zm0 4c-.6855 0-1.3549.06898-2.0016.20037 2.4753 2.52522 4.0016 5.98423 4.0016 9.79963 0 3.8155-1.5263 7.2744-4.0016 9.7996.6467.1314 1.3161.2004 2.0016.2004 5.5228 0 10-4.4772 10-10s-4.4772-10-10-10zm-12 0c-5.5228 0-10 4.4772-10 10s4.4772 10 10 10 10-4.4772 10-10-4.4772-10-10-10z"/><path d="m2 51.5294c0-9.6812 7.84818-17.5294 17.5294-17.5294h24.9412c9.6812 0 17.5294 7.8482 17.5294 17.5294 0 5.7828-4.6878 10.4706-10.4706 10.4706h-20.5294c-1.1046 0-2-.8954-2-2s.8954-2 2-2h8.5294c3.5736 0 6.4706-2.897 6.4706-6.4706 0-7.4721-6.0573-13.5294-13.5294-13.5294h-12.9412c-7.4721 0-13.5294 6.0573-13.5294 13.5294 0 3.5736 2.89698 6.4706 6.4706 6.4706h8.5294c1.1046 0 2 .8954 2 2s-.8954 2-2 2h-8.5294c-5.78276 0-10.4706-4.6878-10.4706-10.4706zm48 0c0-5.4478-2.4851-10.3151-6.3836-13.5302l.0011.0008h.8531c7.4721 0 13.5294 6.0573 13.5294 13.5294 0 3.5736-2.897 6.4706-6.4706 6.4706h-3.7675c1.4018-1.7811 2.2381-4.0282 2.2381-6.4706z"/></g></svg>